<mxfile host="app.diagrams.net" modified="2023-11-25T20:30:28.962Z" agent="Mozilla/5.0 (Windows NT 10.0; Win64; x64) AppleWebKit/537.36 (KHTML, like Gecko) Chrome/119.0.0.0 Safari/537.36" etag="NkgQ8KAmOm5AIQ8iqSvz" version="22.1.4" type="github">
  <diagram name="Page-1" id="b5b7bab2-c9e2-2cf4-8b2a-24fd1a2a6d21">
    <mxGraphModel dx="1179" dy="453" grid="1" gridSize="10" guides="1" tooltips="1" connect="1" arrows="1" fold="1" page="1" pageScale="1" pageWidth="827" pageHeight="1169" background="none" math="0" shadow="0">
      <root>
        <mxCell id="0" />
        <mxCell id="1" parent="0" />
        <mxCell id="6e0c8c40b5770093-72" value="" style="shape=folder;fontStyle=1;spacingTop=10;tabWidth=194;tabHeight=22;tabPosition=left;html=1;rounded=0;shadow=0;comic=0;labelBackgroundColor=none;strokeWidth=1;fillColor=none;fontFamily=Verdana;fontSize=10;align=center;" parent="1" vertex="1">
          <mxGeometry x="340" y="114.5" width="1963.5" height="1285.5" as="geometry" />
        </mxCell>
        <mxCell id="6e0c8c40b5770093-18" value="" style="group" parent="1" vertex="1" connectable="0">
          <mxGeometry x="380" y="190" width="330" height="260" as="geometry" />
        </mxCell>
        <mxCell id="6e0c8c40b5770093-11" value="" style="shape=folder;fontStyle=1;spacingTop=10;tabWidth=123;tabHeight=24;tabPosition=left;html=1;rounded=0;shadow=0;comic=0;labelBackgroundColor=none;strokeWidth=1;fontFamily=Verdana;fontSize=10;align=center;" parent="6e0c8c40b5770093-18" vertex="1">
          <mxGeometry width="330" height="260" as="geometry" />
        </mxCell>
        <mxCell id="uOKciexOjNlCDNnouLq3-6" value="&lt;font face=&quot;Verdana&quot; style=&quot;font-size: 14px;&quot;&gt;&lt;b&gt;pacotes&lt;/b&gt;&lt;/font&gt;" style="text;html=1;strokeColor=none;fillColor=none;align=center;verticalAlign=middle;whiteSpace=wrap;rounded=0;" vertex="1" parent="6e0c8c40b5770093-18">
          <mxGeometry x="129.64285714285714" y="60" width="70.71428571428572" height="60" as="geometry" />
        </mxCell>
        <mxCell id="6e0c8c40b5770093-19" value="" style="group" parent="1" vertex="1" connectable="0">
          <mxGeometry x="970" y="210" width="290" height="270" as="geometry" />
        </mxCell>
        <mxCell id="6e0c8c40b5770093-20" value="" style="shape=folder;fontStyle=1;spacingTop=10;tabWidth=123;tabHeight=24;tabPosition=left;html=1;rounded=0;shadow=0;comic=0;labelBackgroundColor=none;strokeWidth=1;fontFamily=Verdana;fontSize=10;align=center;" parent="6e0c8c40b5770093-19" vertex="1">
          <mxGeometry width="290" height="270" as="geometry" />
        </mxCell>
        <mxCell id="uOKciexOjNlCDNnouLq3-7" value="&lt;font face=&quot;Verdana&quot; style=&quot;font-size: 14px;&quot;&gt;&lt;b&gt;passagemAerea&lt;/b&gt;&lt;/font&gt;" style="text;html=1;strokeColor=none;fillColor=none;align=center;verticalAlign=middle;whiteSpace=wrap;rounded=0;" vertex="1" parent="6e0c8c40b5770093-19">
          <mxGeometry x="113.92857142857144" y="9.997692307692319" width="62.142857142857146" height="62.307692307692314" as="geometry" />
        </mxCell>
        <mxCell id="6e0c8c40b5770093-30" value="" style="group" parent="1" vertex="1" connectable="0">
          <mxGeometry x="1810" y="210" width="375.65" height="370" as="geometry" />
        </mxCell>
        <mxCell id="6e0c8c40b5770093-24" value="" style="group" parent="6e0c8c40b5770093-30" vertex="1" connectable="0">
          <mxGeometry width="375.65" height="369.99999999999994" as="geometry" />
        </mxCell>
        <mxCell id="6e0c8c40b5770093-25" value="" style="shape=folder;fontStyle=1;spacingTop=10;tabWidth=123;tabHeight=24;tabPosition=left;html=1;rounded=0;shadow=0;comic=0;labelBackgroundColor=none;strokeWidth=1;fontFamily=Verdana;fontSize=10;align=center;" parent="6e0c8c40b5770093-24" vertex="1">
          <mxGeometry x="15.65" y="-31.991463414634143" width="360" height="401.99146341463404" as="geometry" />
        </mxCell>
        <mxCell id="uOKciexOjNlCDNnouLq3-8" value="&lt;font face=&quot;Verdana&quot; style=&quot;font-size: 14px;&quot;&gt;&lt;b&gt;diversos&lt;/b&gt;&lt;/font&gt;" style="text;html=1;strokeColor=none;fillColor=none;align=center;verticalAlign=middle;whiteSpace=wrap;rounded=0;" vertex="1" parent="6e0c8c40b5770093-24">
          <mxGeometry x="148.7" width="93.91" height="47.02" as="geometry" />
        </mxCell>
        <mxCell id="uOKciexOjNlCDNnouLq3-25" value="Horario" style="swimlane;fontStyle=1;align=center;verticalAlign=top;childLayout=stackLayout;horizontal=1;startSize=26;horizontalStack=0;resizeParent=1;resizeParentMax=0;resizeLast=0;collapsible=1;marginBottom=0;whiteSpace=wrap;html=1;" vertex="1" parent="6e0c8c40b5770093-24">
          <mxGeometry x="40" y="198.53658536585363" width="190" height="101.80487804878047" as="geometry" />
        </mxCell>
        <mxCell id="uOKciexOjNlCDNnouLq3-26" value="- horas: int&lt;br&gt;- minutos: int" style="text;strokeColor=none;fillColor=none;align=left;verticalAlign=top;spacingLeft=4;spacingRight=4;overflow=hidden;rotatable=0;points=[[0,0.5],[1,0.5]];portConstraint=eastwest;whiteSpace=wrap;html=1;" vertex="1" parent="uOKciexOjNlCDNnouLq3-25">
          <mxGeometry y="26" width="190" height="39.70731707317072" as="geometry" />
        </mxCell>
        <mxCell id="uOKciexOjNlCDNnouLq3-27" value="" style="line;strokeWidth=1;fillColor=none;align=left;verticalAlign=middle;spacingTop=-1;spacingLeft=3;spacingRight=3;rotatable=0;labelPosition=right;points=[];portConstraint=eastwest;strokeColor=inherit;" vertex="1" parent="uOKciexOjNlCDNnouLq3-25">
          <mxGeometry y="65.70731707317071" width="190" height="7.219512195121949" as="geometry" />
        </mxCell>
        <mxCell id="uOKciexOjNlCDNnouLq3-28" value="+ newHorario(horario): Horario" style="text;strokeColor=none;fillColor=none;align=left;verticalAlign=top;spacingLeft=4;spacingRight=4;overflow=hidden;rotatable=0;points=[[0,0.5],[1,0.5]];portConstraint=eastwest;whiteSpace=wrap;html=1;" vertex="1" parent="uOKciexOjNlCDNnouLq3-25">
          <mxGeometry y="72.92682926829266" width="190" height="28.878048780487795" as="geometry" />
        </mxCell>
        <mxCell id="uOKciexOjNlCDNnouLq3-21" value="Data" style="swimlane;fontStyle=1;align=center;verticalAlign=top;childLayout=stackLayout;horizontal=1;startSize=26;horizontalStack=0;resizeParent=1;resizeParentMax=0;resizeLast=0;collapsible=1;marginBottom=0;whiteSpace=wrap;html=1;" vertex="1" parent="6e0c8c40b5770093-24">
          <mxGeometry x="40" y="57.025121951219504" width="150" height="128.8780487804878" as="geometry" />
        </mxCell>
        <mxCell id="uOKciexOjNlCDNnouLq3-22" value="- dia: int&lt;br&gt;- mes: int&lt;br&gt;- ano: int" style="text;strokeColor=none;fillColor=none;align=left;verticalAlign=top;spacingLeft=4;spacingRight=4;overflow=hidden;rotatable=0;points=[[0,0.5],[1,0.5]];portConstraint=eastwest;whiteSpace=wrap;html=1;" vertex="1" parent="uOKciexOjNlCDNnouLq3-21">
          <mxGeometry y="26" width="150" height="48.731707317073166" as="geometry" />
        </mxCell>
        <mxCell id="uOKciexOjNlCDNnouLq3-23" value="" style="line;strokeWidth=1;fillColor=none;align=left;verticalAlign=middle;spacingTop=-1;spacingLeft=3;spacingRight=3;rotatable=0;labelPosition=right;points=[];portConstraint=eastwest;strokeColor=inherit;" vertex="1" parent="uOKciexOjNlCDNnouLq3-21">
          <mxGeometry y="74.73170731707316" width="150" height="7.21951219512195" as="geometry" />
        </mxCell>
        <mxCell id="uOKciexOjNlCDNnouLq3-24" value="- maxDias(mes, ano): int&lt;br&gt;+ newData(data): Data" style="text;strokeColor=none;fillColor=none;align=left;verticalAlign=top;spacingLeft=4;spacingRight=4;overflow=hidden;rotatable=0;points=[[0,0.5],[1,0.5]];portConstraint=eastwest;whiteSpace=wrap;html=1;" vertex="1" parent="uOKciexOjNlCDNnouLq3-21">
          <mxGeometry y="81.95121951219511" width="150" height="46.92682926829268" as="geometry" />
        </mxCell>
        <mxCell id="6e0c8c40b5770093-73" value="&lt;b&gt;&lt;font style=&quot;font-size: 12px;&quot;&gt;&amp;lt;&amp;lt;model&amp;gt;&amp;gt;&lt;/font&gt;&lt;/b&gt;" style="text;html=1;align=left;verticalAlign=top;spacingTop=-4;fontSize=10;fontFamily=Verdana" parent="1" vertex="1">
          <mxGeometry x="327.5" y="114.5" width="130" height="20" as="geometry" />
        </mxCell>
        <mxCell id="uOKciexOjNlCDNnouLq3-9" value="" style="group" vertex="1" connectable="0" parent="1">
          <mxGeometry x="1773.47" y="780" width="448.7" height="460" as="geometry" />
        </mxCell>
        <mxCell id="uOKciexOjNlCDNnouLq3-10" value="" style="group" vertex="1" connectable="0" parent="uOKciexOjNlCDNnouLq3-9">
          <mxGeometry width="448.7" height="460" as="geometry" />
        </mxCell>
        <mxCell id="uOKciexOjNlCDNnouLq3-11" value="" style="shape=folder;fontStyle=1;spacingTop=10;tabWidth=123;tabHeight=24;tabPosition=left;html=1;rounded=0;shadow=0;comic=0;labelBackgroundColor=none;strokeWidth=1;fontFamily=Verdana;fontSize=10;align=center;" vertex="1" parent="uOKciexOjNlCDNnouLq3-10">
          <mxGeometry x="18.7" y="-35.45" width="430" height="455.45" as="geometry" />
        </mxCell>
        <mxCell id="uOKciexOjNlCDNnouLq3-12" value="&lt;font face=&quot;Verdana&quot; style=&quot;font-size: 14px;&quot;&gt;&lt;b&gt;destino&lt;/b&gt;&lt;/font&gt;" style="text;html=1;strokeColor=none;fillColor=none;align=center;verticalAlign=middle;whiteSpace=wrap;rounded=0;" vertex="1" parent="uOKciexOjNlCDNnouLq3-10">
          <mxGeometry x="177.60869565217394" y="0.002287390029323433" width="112.17391304347827" height="53.181818181818194" as="geometry" />
        </mxCell>
        <mxCell id="uOKciexOjNlCDNnouLq3-29" value="Destino" style="swimlane;fontStyle=1;align=center;verticalAlign=top;childLayout=stackLayout;horizontal=1;startSize=26;horizontalStack=0;resizeParent=1;resizeParentMax=0;resizeLast=0;collapsible=1;marginBottom=0;whiteSpace=wrap;html=1;" vertex="1" parent="uOKciexOjNlCDNnouLq3-10">
          <mxGeometry x="30" y="55.71" width="210" height="130" as="geometry" />
        </mxCell>
        <mxCell id="uOKciexOjNlCDNnouLq3-30" value="- destino: String&lt;br&gt;- categoria: CategoriasDestino&lt;br&gt;- pacotes: ArrayList&amp;lt;PacoteViagem&amp;gt;" style="text;strokeColor=none;fillColor=none;align=left;verticalAlign=top;spacingLeft=4;spacingRight=4;overflow=hidden;rotatable=0;points=[[0,0.5],[1,0.5]];portConstraint=eastwest;whiteSpace=wrap;html=1;" vertex="1" parent="uOKciexOjNlCDNnouLq3-29">
          <mxGeometry y="26" width="210" height="64" as="geometry" />
        </mxCell>
        <mxCell id="uOKciexOjNlCDNnouLq3-31" value="" style="line;strokeWidth=1;fillColor=none;align=left;verticalAlign=middle;spacingTop=-1;spacingLeft=3;spacingRight=3;rotatable=0;labelPosition=right;points=[];portConstraint=eastwest;strokeColor=inherit;" vertex="1" parent="uOKciexOjNlCDNnouLq3-29">
          <mxGeometry y="90" width="210" height="40" as="geometry" />
        </mxCell>
        <mxCell id="uOKciexOjNlCDNnouLq3-33" value="&amp;lt;&amp;lt;enum&amp;gt;&amp;gt;&lt;br&gt;&lt;b&gt;CategoriasDestino&lt;/b&gt;" style="swimlane;fontStyle=0;childLayout=stackLayout;horizontal=1;startSize=50;fillColor=none;horizontalStack=0;resizeParent=1;resizeParentMax=0;resizeLast=0;collapsible=1;marginBottom=0;whiteSpace=wrap;html=1;" vertex="1" parent="uOKciexOjNlCDNnouLq3-10">
          <mxGeometry x="37.61" y="200" width="140" height="189.99571428571429" as="geometry" />
        </mxCell>
        <mxCell id="uOKciexOjNlCDNnouLq3-34" value="PRAIA" style="text;strokeColor=none;fillColor=none;align=left;verticalAlign=top;spacingLeft=4;spacingRight=4;overflow=hidden;rotatable=0;points=[[0,0.5],[1,0.5]];portConstraint=eastwest;whiteSpace=wrap;html=1;" vertex="1" parent="uOKciexOjNlCDNnouLq3-33">
          <mxGeometry y="50" width="140" height="24.514285714285716" as="geometry" />
        </mxCell>
        <mxCell id="uOKciexOjNlCDNnouLq3-35" value="MONTANHA" style="text;strokeColor=none;fillColor=none;align=left;verticalAlign=top;spacingLeft=4;spacingRight=4;overflow=hidden;rotatable=0;points=[[0,0.5],[1,0.5]];portConstraint=eastwest;whiteSpace=wrap;html=1;" vertex="1" parent="uOKciexOjNlCDNnouLq3-33">
          <mxGeometry y="74.51428571428572" width="140" height="28.97142857142857" as="geometry" />
        </mxCell>
        <mxCell id="uOKciexOjNlCDNnouLq3-36" value="CIDADE" style="text;strokeColor=none;fillColor=none;align=left;verticalAlign=top;spacingLeft=4;spacingRight=4;overflow=hidden;rotatable=0;points=[[0,0.5],[1,0.5]];portConstraint=eastwest;whiteSpace=wrap;html=1;" vertex="1" parent="uOKciexOjNlCDNnouLq3-33">
          <mxGeometry y="103.4857142857143" width="140" height="26.51" as="geometry" />
        </mxCell>
        <mxCell id="uOKciexOjNlCDNnouLq3-37" value="SAVANA" style="text;strokeColor=none;fillColor=none;align=left;verticalAlign=top;spacingLeft=4;spacingRight=4;overflow=hidden;rotatable=0;points=[[0,0.5],[1,0.5]];portConstraint=eastwest;whiteSpace=wrap;html=1;" vertex="1" parent="uOKciexOjNlCDNnouLq3-33">
          <mxGeometry y="129.99571428571429" width="140" height="30" as="geometry" />
        </mxCell>
        <mxCell id="uOKciexOjNlCDNnouLq3-39" value="RESORT" style="text;strokeColor=none;fillColor=none;align=left;verticalAlign=top;spacingLeft=4;spacingRight=4;overflow=hidden;rotatable=0;points=[[0,0.5],[1,0.5]];portConstraint=eastwest;whiteSpace=wrap;html=1;" vertex="1" parent="uOKciexOjNlCDNnouLq3-33">
          <mxGeometry y="159.99571428571429" width="140" height="30" as="geometry" />
        </mxCell>
        <mxCell id="uOKciexOjNlCDNnouLq3-13" value="" style="group" vertex="1" connectable="0" parent="1">
          <mxGeometry x="820" y="670" width="710" height="655" as="geometry" />
        </mxCell>
        <mxCell id="uOKciexOjNlCDNnouLq3-14" value="" style="group" vertex="1" connectable="0" parent="uOKciexOjNlCDNnouLq3-13">
          <mxGeometry y="-10" width="710" height="654.9999999999999" as="geometry" />
        </mxCell>
        <mxCell id="uOKciexOjNlCDNnouLq3-15" value="" style="shape=folder;fontStyle=1;spacingTop=10;tabWidth=123;tabHeight=24;tabPosition=left;html=1;rounded=0;shadow=0;comic=0;labelBackgroundColor=none;strokeWidth=1;fontFamily=Verdana;fontSize=10;align=center;" vertex="1" parent="uOKciexOjNlCDNnouLq3-14">
          <mxGeometry x="19.12956521739131" y="-29.995454545454535" width="710" height="654.9999999999999" as="geometry" />
        </mxCell>
        <mxCell id="uOKciexOjNlCDNnouLq3-16" value="&lt;font face=&quot;Verdana&quot; style=&quot;font-size: 14px;&quot;&gt;&lt;b&gt;hospedagem&lt;/b&gt;&lt;/font&gt;" style="text;html=1;strokeColor=none;fillColor=none;align=center;verticalAlign=middle;whiteSpace=wrap;rounded=0;" vertex="1" parent="uOKciexOjNlCDNnouLq3-14">
          <mxGeometry x="281.5208695652176" y="5.235454545454559" width="185.21739130434784" height="89.3181818181818" as="geometry" />
        </mxCell>
        <mxCell id="uOKciexOjNlCDNnouLq3-41" value="Hospedagem" style="swimlane;fontStyle=1;align=center;verticalAlign=top;childLayout=stackLayout;horizontal=1;startSize=26;horizontalStack=0;resizeParent=1;resizeParentMax=0;resizeLast=0;collapsible=1;marginBottom=0;whiteSpace=wrap;html=1;" vertex="1" parent="uOKciexOjNlCDNnouLq3-14">
          <mxGeometry x="59.129999999999995" y="89.99512195121952" width="150" height="200" as="geometry" />
        </mxCell>
        <mxCell id="uOKciexOjNlCDNnouLq3-42" value="- nome: int&lt;br&gt;- endereco: int&lt;br&gt;- localizacao: int&lt;br&gt;- distanciaCentro: int&lt;br style=&quot;border-color: var(--border-color);&quot;&gt;- classificacao: int&lt;br style=&quot;border-color: var(--border-color);&quot;&gt;- checkin: int&lt;br&gt;- checkout: int&lt;br&gt;- servicos: int" style="text;strokeColor=none;fillColor=none;align=left;verticalAlign=top;spacingLeft=4;spacingRight=4;overflow=hidden;rotatable=0;points=[[0,0.5],[1,0.5]];portConstraint=eastwest;whiteSpace=wrap;html=1;" vertex="1" parent="uOKciexOjNlCDNnouLq3-41">
          <mxGeometry y="26" width="150" height="134" as="geometry" />
        </mxCell>
        <mxCell id="uOKciexOjNlCDNnouLq3-43" value="" style="line;strokeWidth=1;fillColor=none;align=left;verticalAlign=middle;spacingTop=-1;spacingLeft=3;spacingRight=3;rotatable=0;labelPosition=right;points=[];portConstraint=eastwest;strokeColor=inherit;" vertex="1" parent="uOKciexOjNlCDNnouLq3-41">
          <mxGeometry y="160" width="150" height="40" as="geometry" />
        </mxCell>
        <mxCell id="uOKciexOjNlCDNnouLq3-45" value="Quarto" style="swimlane;fontStyle=1;align=center;verticalAlign=top;childLayout=stackLayout;horizontal=1;startSize=26;horizontalStack=0;resizeParent=1;resizeParentMax=0;resizeLast=0;collapsible=1;marginBottom=0;whiteSpace=wrap;html=1;" vertex="1" parent="uOKciexOjNlCDNnouLq3-14">
          <mxGeometry x="466.7400000000001" y="94.55512195121946" width="180" height="200" as="geometry" />
        </mxCell>
        <mxCell id="uOKciexOjNlCDNnouLq3-46" value="- tipo: String&lt;br style=&quot;border-color: var(--border-color);&quot;&gt;- camaCasal: int&lt;br style=&quot;border-color: var(--border-color);&quot;&gt;- camaIndividual: int&lt;br style=&quot;border-color: var(--border-color);&quot;&gt;- camaBebe: int&lt;br style=&quot;border-color: var(--border-color);&quot;&gt;- superficie: int&lt;br style=&quot;border-color: var(--border-color);&quot;&gt;- detalhes: ArrayList&amp;lt;String&amp;gt;&lt;br&gt;- quantidadeTotal: int&lt;br&gt;- quantidadeRestante: int" style="text;strokeColor=none;fillColor=none;align=left;verticalAlign=top;spacingLeft=4;spacingRight=4;overflow=hidden;rotatable=0;points=[[0,0.5],[1,0.5]];portConstraint=eastwest;whiteSpace=wrap;html=1;" vertex="1" parent="uOKciexOjNlCDNnouLq3-45">
          <mxGeometry y="26" width="180" height="134" as="geometry" />
        </mxCell>
        <mxCell id="uOKciexOjNlCDNnouLq3-47" value="" style="line;strokeWidth=1;fillColor=none;align=left;verticalAlign=middle;spacingTop=-1;spacingLeft=3;spacingRight=3;rotatable=0;labelPosition=right;points=[];portConstraint=eastwest;strokeColor=inherit;" vertex="1" parent="uOKciexOjNlCDNnouLq3-45">
          <mxGeometry y="160" width="180" height="40" as="geometry" />
        </mxCell>
        <mxCell id="uOKciexOjNlCDNnouLq3-49" value="Servicos" style="swimlane;fontStyle=1;align=center;verticalAlign=top;childLayout=stackLayout;horizontal=1;startSize=26;horizontalStack=0;resizeParent=1;resizeParentMax=0;resizeLast=0;collapsible=1;marginBottom=0;whiteSpace=wrap;html=1;" vertex="1" parent="uOKciexOjNlCDNnouLq3-14">
          <mxGeometry x="190" y="310" width="270" height="310" as="geometry" />
        </mxCell>
        <mxCell id="uOKciexOjNlCDNnouLq3-50" value="- lazer: ArrayList&amp;lt;String&amp;gt;&lt;br style=&quot;border-color: var(--border-color);&quot;&gt;- bemEstar: ArrayList&amp;lt;String&amp;gt;&lt;br style=&quot;border-color: var(--border-color);&quot;&gt;- paraCriancas: ArrayList&amp;lt;String&amp;gt;&lt;br style=&quot;border-color: var(--border-color);&quot;&gt;- arLivre: ArrayList&amp;lt;String&amp;gt;&lt;br style=&quot;border-color: var(--border-color);&quot;&gt;- refeicoes: ArrayList&amp;lt;String&amp;gt;&lt;br style=&quot;border-color: var(--border-color);&quot;&gt;- estacionamentoTransporte: ArrayList&amp;lt;String&amp;gt;&lt;br style=&quot;border-color: var(--border-color);&quot;&gt;- animaisEstimacao: ArrayList&amp;lt;String&amp;gt;&lt;br style=&quot;border-color: var(--border-color);&quot;&gt;- seguranca: ArrayList&amp;lt;String&amp;gt;&lt;br style=&quot;border-color: var(--border-color);&quot;&gt;- acessibilidade: ArrayList&amp;lt;String&amp;gt;&lt;br style=&quot;border-color: var(--border-color);&quot;&gt;- aTrabalho: ArrayList&amp;lt;String&amp;gt;&lt;br style=&quot;border-color: var(--border-color);&quot;&gt;- lavanderia: ArrayList&amp;lt;String&amp;gt;&lt;br style=&quot;border-color: var(--border-color);&quot;&gt;- areaComum: ArrayList&amp;lt;String&amp;gt;&lt;br style=&quot;border-color: var(--border-color);&quot;&gt;- recepcao: ArrayList&amp;lt;String&amp;gt;&lt;br style=&quot;border-color: var(--border-color);&quot;&gt;- higiene: ArrayList&amp;lt;String&amp;gt;&lt;br style=&quot;border-color: var(--border-color);&quot;&gt;- regras: ArrayList&amp;lt;String&amp;gt;&lt;br style=&quot;border-color: var(--border-color);&quot;&gt;- lingua: ArrayList&amp;lt;String&amp;gt;&lt;br style=&quot;border-color: var(--border-color);&quot;&gt;- servicosDestaque: ArrayList&amp;lt;String&amp;gt;" style="text;strokeColor=none;fillColor=none;align=left;verticalAlign=top;spacingLeft=4;spacingRight=4;overflow=hidden;rotatable=0;points=[[0,0.5],[1,0.5]];portConstraint=eastwest;whiteSpace=wrap;html=1;" vertex="1" parent="uOKciexOjNlCDNnouLq3-49">
          <mxGeometry y="26" width="270" height="254" as="geometry" />
        </mxCell>
        <mxCell id="uOKciexOjNlCDNnouLq3-51" value="" style="line;strokeWidth=1;fillColor=none;align=left;verticalAlign=middle;spacingTop=-1;spacingLeft=3;spacingRight=3;rotatable=0;labelPosition=right;points=[];portConstraint=eastwest;strokeColor=inherit;" vertex="1" parent="uOKciexOjNlCDNnouLq3-49">
          <mxGeometry y="280" width="270" height="30" as="geometry" />
        </mxCell>
        <mxCell id="uOKciexOjNlCDNnouLq3-17" value="" style="group" vertex="1" connectable="0" parent="1">
          <mxGeometry x="370" y="650" width="330" height="425.44" as="geometry" />
        </mxCell>
        <mxCell id="uOKciexOjNlCDNnouLq3-18" value="" style="group" vertex="1" connectable="0" parent="uOKciexOjNlCDNnouLq3-17">
          <mxGeometry x="-8.461538461538462" y="4.67139027934765" width="330" height="425.43999999999994" as="geometry" />
        </mxCell>
        <mxCell id="uOKciexOjNlCDNnouLq3-19" value="" style="shape=folder;fontStyle=1;spacingTop=10;tabWidth=123;tabHeight=24;tabPosition=left;html=1;rounded=0;shadow=0;comic=0;labelBackgroundColor=none;strokeWidth=1;fontFamily=Verdana;fontSize=10;align=center;" vertex="1" parent="uOKciexOjNlCDNnouLq3-18">
          <mxGeometry x="9.428571428571429" y="-19.338181818181813" width="320.5714285714286" height="444.77818181818174" as="geometry" />
        </mxCell>
        <mxCell id="uOKciexOjNlCDNnouLq3-20" value="&lt;font face=&quot;Verdana&quot; style=&quot;font-size: 14px;&quot;&gt;&lt;b&gt;pessoas&lt;/b&gt;&lt;/font&gt;" style="text;html=1;strokeColor=none;fillColor=none;align=center;verticalAlign=middle;whiteSpace=wrap;rounded=0;" vertex="1" parent="uOKciexOjNlCDNnouLq3-18">
          <mxGeometry x="141.42857142857142" y="19.338181818181813" width="56.57142857142858" height="29.00727272727272" as="geometry" />
        </mxCell>
        <mxCell id="uOKciexOjNlCDNnouLq3-54" value="Usuario" style="swimlane;fontStyle=1;align=center;verticalAlign=top;childLayout=stackLayout;horizontal=1;startSize=26;horizontalStack=0;resizeParent=1;resizeParentMax=0;resizeLast=0;collapsible=1;marginBottom=0;whiteSpace=wrap;html=1;" vertex="1" parent="uOKciexOjNlCDNnouLq3-18">
          <mxGeometry x="28.28571428571429" y="63.269814279379204" width="160" height="154.3484579363798" as="geometry" />
        </mxCell>
        <mxCell id="uOKciexOjNlCDNnouLq3-55" value="- nome: String&lt;br&gt;- email: String&lt;br&gt;- senha: String&lt;br&gt;- tipo: TipoUsuario&lt;br style=&quot;border-color: var(--border-color);&quot;&gt;- reserva: PacoteViagem" style="text;strokeColor=none;fillColor=none;align=left;verticalAlign=top;spacingLeft=4;spacingRight=4;overflow=hidden;rotatable=0;points=[[0,0.5],[1,0.5]];portConstraint=eastwest;whiteSpace=wrap;html=1;" vertex="1" parent="uOKciexOjNlCDNnouLq3-54">
          <mxGeometry y="26" width="160" height="94" as="geometry" />
        </mxCell>
        <mxCell id="uOKciexOjNlCDNnouLq3-56" value="" style="line;strokeWidth=1;fillColor=none;align=left;verticalAlign=middle;spacingTop=-1;spacingLeft=3;spacingRight=3;rotatable=0;labelPosition=right;points=[];portConstraint=eastwest;strokeColor=inherit;" vertex="1" parent="uOKciexOjNlCDNnouLq3-54">
          <mxGeometry y="120" width="160" height="34.34845793637978" as="geometry" />
        </mxCell>
        <mxCell id="uOKciexOjNlCDNnouLq3-58" value="&amp;lt;&amp;lt;enum&amp;gt;&amp;gt;&lt;br&gt;&lt;b&gt;TipoUsuario&lt;/b&gt;" style="swimlane;fontStyle=0;childLayout=stackLayout;horizontal=1;startSize=50;fillColor=none;horizontalStack=0;resizeParent=1;resizeParentMax=0;resizeLast=0;collapsible=1;marginBottom=0;whiteSpace=wrap;html=1;" vertex="1" parent="uOKciexOjNlCDNnouLq3-18">
          <mxGeometry x="37.71186813186814" y="245.3281753463588" width="132" height="101.71582337662338" as="geometry" />
        </mxCell>
        <mxCell id="uOKciexOjNlCDNnouLq3-59" value="CLIENTE" style="text;strokeColor=none;fillColor=none;align=left;verticalAlign=top;spacingLeft=4;spacingRight=4;overflow=hidden;rotatable=0;points=[[0,0.5],[1,0.5]];portConstraint=eastwest;whiteSpace=wrap;html=1;" vertex="1" parent="uOKciexOjNlCDNnouLq3-58">
          <mxGeometry y="50" width="132" height="23.703085714285713" as="geometry" />
        </mxCell>
        <mxCell id="uOKciexOjNlCDNnouLq3-60" value="ADMINISTRADOR" style="text;strokeColor=none;fillColor=none;align=left;verticalAlign=top;spacingLeft=4;spacingRight=4;overflow=hidden;rotatable=0;points=[[0,0.5],[1,0.5]];portConstraint=eastwest;whiteSpace=wrap;html=1;" vertex="1" parent="uOKciexOjNlCDNnouLq3-58">
          <mxGeometry y="73.70308571428572" width="132" height="28.012737662337656" as="geometry" />
        </mxCell>
      </root>
    </mxGraphModel>
  </diagram>
</mxfile>
